# xmcd CD database file
#
# Track frame offsets:
#	182
#	15225
#	29550
#	44020
#	58627
#	74172
#	97380
#	116837
#	137862
#	150727
#	174660
#	188397
#	212927
#	228657
#	241172
#	252095
#
# Disc length: 3669 seconds
#
# Revision: 0
# Processed by: cddbd v1.5.2PL0 Copyright (c) Steve Scherf et al.
# Submitted via: CDex 1.51
#
DISCID=ed0e5310
DTITLE=Various Artist - You Got Rhythm
DYEAR=1996
DGENRE=Jazz
TTITLE0=sarah vaughan/summertime
TTITLE1=louis armstrong/cabaret
TTITLE2=buddy greco/the lady is a tramp
TTITLE3=ella fitzgerald/people
TTITLE4=billie holiday/i'm a fool to want you
TTITLE5=grover washington jr/caught a touch of your love
TTITLE6=herbie hancock/'round midnight
TTITLE7=grover washington jr/the look of love
TTITLE8=stevie ray vaughan/lookin' out the window
TTITLE9=muddy waters/mannish boy
TTITLE10=sammy davis jnr/too close for comfort
TTITLE11=dave brubeck/take five
TTITLE12=bill withers/ain't no sunshine
TTITLE13=johnny nash/dream lover
TTITLE14=aretha franklin/rock a bye your baby
TTITLE15=philip bailey/walking on the chinese wall
EXTD=YEAR: 1996
EXTT0=
EXTT1=
EXTT2=
EXTT3=
EXTT4=
EXTT5=
EXTT6=
EXTT7=
EXTT8=
EXTT9=
EXTT10=
EXTT11=
EXTT12=
EXTT13=
EXTT14=
EXTT15=
PLAYORDER=
